<svg width="303" height="16" viewBox="0 0 303 16" fill="none" xmlns="http://www.w3.org/2000/svg">
<path d="M6.63503 13.1429C9.99409 13.1429 12.7172 10.3286 12.7172 6.85714C12.7172 3.38564 9.99409 0.571426 6.63503 0.571426C3.27597 0.571426 0.552917 3.38564 0.552917 6.85714C0.552917 10.3286 3.27597 13.1429 6.63503 13.1429Z" fill="white" stroke="black" stroke-width="0.5"/>
<path d="M115.007 13.1429C118.366 13.1429 121.089 10.3286 121.089 6.85714C121.089 3.38564 118.366 0.571426 115.007 0.571426C111.648 0.571426 108.925 3.38564 108.925 6.85714C108.925 10.3286 111.648 13.1429 115.007 13.1429Z" fill="#FF0000" stroke="#FF0000" stroke-width="0.5"/>
<path d="M214.533 13.1429C217.892 13.1429 220.615 10.3286 220.615 6.85714C220.615 3.38564 217.892 0.571426 214.533 0.571426C211.174 0.571426 208.451 3.38564 208.451 6.85714C208.451 10.3286 211.174 13.1429 214.533 13.1429Z" fill="#0066FF" stroke="#0066FF" stroke-width="0.5"/>
<path d="M23.3609 11.4286H20.879V3.1169H23.4708C24.2511 3.1169 24.9186 3.28327 25.4737 3.61607C26.0286 3.94615 26.4541 4.42101 26.7498 5.0406C27.0458 5.65747 27.1937 6.39612 27.1937 7.25651C27.1937 8.12229 27.0444 8.86771 26.7459 9.49269C26.4475 10.115 26.0129 10.5939 25.4423 10.9294C24.8715 11.2622 24.1777 11.4286 23.3609 11.4286ZM21.8529 10.5357H23.2981C23.9631 10.5357 24.5141 10.4031 24.9513 10.138C25.3886 9.87285 25.7146 9.49541 25.9291 9.0057C26.1438 8.51596 26.2511 7.9329 26.2511 7.25651C26.2511 6.58551 26.1452 6.00784 25.9331 5.52355C25.721 5.03653 25.4043 4.66316 24.9827 4.40341C24.5612 4.14096 24.0363 4.00974 23.408 4.00974H21.8529V10.5357ZM29.0334 11.4286V5.19482H29.9601V11.4286H29.0334ZM29.5045 4.15584C29.324 4.15584 29.1681 4.09226 29.0372 3.9651C28.9089 3.83795 28.8447 3.68508 28.8447 3.5065C28.8447 3.32794 28.9089 3.17507 29.0372 3.04789C29.1681 2.92074 29.324 2.85715 29.5045 2.85715C29.6852 2.85715 29.8398 2.92074 29.9681 3.04789C30.0988 3.17507 30.1642 3.32794 30.1642 3.5065C30.1642 3.68508 30.0988 3.83795 29.9681 3.9651C29.8398 4.09226 29.6852 4.15584 29.5045 4.15584ZM36.2618 6.59091L35.4294 6.83443C35.3769 6.69102 35.2997 6.55168 35.1976 6.41639C35.0983 6.2784 34.962 6.16478 34.7893 6.0755C34.6166 5.9862 34.3952 5.94156 34.1256 5.94156C33.7564 5.94156 33.4488 6.02949 33.2026 6.20535C32.9594 6.37852 32.8375 6.59902 32.8375 6.86688C32.8375 7.10499 32.9213 7.29303 33.089 7.43102C33.2564 7.56899 33.5182 7.68398 33.8743 7.77598L34.7696 8.00325C35.3088 8.13854 35.7107 8.34551 35.9752 8.62419C36.2397 8.90016 36.3717 9.25596 36.3717 9.69157C36.3717 10.0487 36.2722 10.368 36.0734 10.6494C35.877 10.9307 35.6021 11.1526 35.2487 11.3149C34.8952 11.4773 34.4843 11.5585 34.0156 11.5585C33.4004 11.5585 32.8912 11.4205 32.488 11.1445C32.0849 10.8685 31.8296 10.4654 31.7224 9.93507L32.6019 9.7078C32.6858 10.0433 32.8441 10.2949 33.077 10.4627C33.3128 10.6304 33.6202 10.7143 33.9999 10.7143C34.4319 10.7143 34.7749 10.6196 35.0288 10.4302C35.2854 10.2381 35.4137 10.0081 35.4137 9.74026C35.4137 9.52382 35.3402 9.34254 35.1938 9.19644C35.0472 9.04762 34.822 8.93669 34.5184 8.86364L33.5129 8.62014C32.9607 8.48485 32.5548 8.27516 32.2956 7.99107C32.0391 7.70428 31.9108 7.34579 31.9108 6.91559C31.9108 6.56387 32.0063 6.25271 32.1974 5.98215C32.3912 5.71159 32.6544 5.49918 32.9868 5.34496C33.3218 5.19075 33.7014 5.11365 34.1256 5.11365C34.7225 5.11365 35.1912 5.24892 35.5315 5.51948C35.8743 5.79004 36.1178 6.14718 36.2618 6.59091ZM38.0986 13.7662V5.19482H38.9939V6.18508H39.1038C39.172 6.07685 39.2662 5.93886 39.3867 5.77111C39.5097 5.60064 39.6851 5.44915 39.9129 5.31655C40.1433 5.18128 40.4547 5.11365 40.8475 5.11365C41.3553 5.11365 41.8032 5.24487 42.1905 5.50732C42.5779 5.76976 42.8805 6.14179 43.0977 6.62339C43.3149 7.10499 43.4237 7.67317 43.4237 8.32794C43.4237 8.9881 43.3149 9.56035 43.0977 10.0446C42.8805 10.5262 42.5793 10.8996 42.1944 11.1648C41.8096 11.4272 41.3659 11.5585 40.8632 11.5585C40.4757 11.5585 40.1654 11.4922 39.9326 11.3596C39.6994 11.2243 39.5203 11.0714 39.3945 10.901C39.2688 10.7278 39.172 10.5844 39.1038 10.4708H39.0253V13.7662H38.0986ZM39.0096 8.31168C39.0096 8.78247 39.0764 9.19779 39.21 9.55763C39.3436 9.91477 39.5384 10.1948 39.795 10.3977C40.0515 10.5979 40.3658 10.6981 40.7376 10.6981C41.1251 10.6981 41.4484 10.5925 41.7074 10.3815C41.9693 10.1678 42.1657 9.88096 42.2966 9.5211C42.4302 9.15856 42.4968 8.75541 42.4968 8.31168C42.4968 7.87338 42.4313 7.47836 42.3006 7.12663C42.1723 6.77219 41.9773 6.49216 41.7154 6.28654C41.4562 6.0782 41.1302 5.97404 40.7376 5.97404C40.3605 5.97404 40.0438 6.07278 39.7872 6.27029C39.5307 6.4651 39.3369 6.73838 39.206 7.09011C39.0751 7.43914 39.0096 7.84634 39.0096 8.31168ZM47.6195 11.5585C47.0749 11.5585 46.5972 11.4245 46.1861 11.1567C45.7778 10.8888 45.4584 10.5141 45.228 10.0325C45.0002 9.55086 44.8863 8.9881 44.8863 8.34416C44.8863 7.69482 45.0002 7.12798 45.228 6.64368C45.4584 6.15936 45.7778 5.78327 46.1861 5.51543C46.5972 5.24757 47.0749 5.11365 47.6195 5.11365C48.164 5.11365 48.6406 5.24757 49.0489 5.51543C49.46 5.78327 49.7794 6.15936 50.0072 6.64368C50.2374 7.12798 50.3527 7.69482 50.3527 8.34416C50.3527 8.9881 50.2374 9.55086 50.0072 10.0325C49.7794 10.5141 49.46 10.8888 49.0489 11.1567C48.6406 11.4245 48.164 11.5585 47.6195 11.5585ZM47.6195 10.6981C48.0333 10.6981 48.3734 10.5885 48.6406 10.3693C48.9075 10.1502 49.1053 9.86202 49.2335 9.50487C49.3618 9.14773 49.426 8.76083 49.426 8.34416C49.426 7.9275 49.3618 7.53923 49.2335 7.17939C49.1053 6.81955 48.9075 6.52869 48.6406 6.30682C48.3734 6.08496 48.0333 5.97404 47.6195 5.97404C47.2059 5.97404 46.8655 6.08496 46.5986 6.30682C46.3314 6.52869 46.1339 6.81955 46.0056 7.17939C45.8773 7.53923 45.8132 7.9275 45.8132 8.34416C45.8132 8.76083 45.8773 9.14773 46.0056 9.50487C46.1339 9.86202 46.3314 10.1502 46.5986 10.3693C46.8655 10.5885 47.2059 10.6981 47.6195 10.6981ZM53.0259 7.67859V11.4286H52.0992V5.19482H52.9945V6.16883H53.073C53.2143 5.85228 53.4291 5.59795 53.7171 5.40586C54.005 5.21104 54.3768 5.11365 54.8324 5.11365C55.2407 5.11365 55.5981 5.20021 55.9044 5.37338C56.2107 5.54384 56.4489 5.80357 56.6192 6.1526C56.7893 6.49893 56.8745 6.93724 56.8745 7.46755V11.4286H55.9475V7.53246C55.9475 7.04275 55.8246 6.66126 55.5784 6.38798C55.3325 6.11203 54.9947 5.97404 54.5652 5.97404C54.2695 5.97404 54.005 6.04032 53.7721 6.1729C53.5417 6.30547 53.3597 6.49893 53.2263 6.75326C53.0927 7.00757 53.0259 7.31603 53.0259 7.67859ZM58.8997 11.4286V5.19482H59.8264V11.4286H58.8997ZM59.3708 4.15584C59.1903 4.15584 59.0344 4.09226 58.9037 3.9651C58.7754 3.83795 58.7113 3.68508 58.7113 3.5065C58.7113 3.32794 58.7754 3.17507 58.9037 3.04789C59.0344 2.92074 59.1903 2.85715 59.3708 2.85715C59.5515 2.85715 59.7061 2.92074 59.8343 3.04789C59.9651 3.17507 60.0305 3.32794 60.0305 3.5065C60.0305 3.68508 59.9651 3.83795 59.8343 3.9651C59.7061 4.09226 59.5515 4.15584 59.3708 4.15584ZM61.9812 11.4286V3.1169H62.9081V6.18508H62.9867C63.0545 6.07685 63.149 5.93886 63.2693 5.77111C63.3923 5.60064 63.5677 5.44915 63.7955 5.31655C64.0259 5.18128 64.3375 5.11365 64.7301 5.11365C65.2381 5.11365 65.6858 5.24487 66.0733 5.50732C66.4608 5.76976 66.7631 6.14179 66.9803 6.62339C67.1977 7.10499 67.3063 7.67317 67.3063 8.32794C67.3063 8.9881 67.1977 9.56035 66.9803 10.0446C66.7631 10.5262 66.4619 10.8996 66.077 11.1648C65.6922 11.4272 65.2485 11.5585 64.7458 11.5585C64.3583 11.5585 64.0483 11.4922 63.8151 11.3596C63.5823 11.2243 63.4029 11.0714 63.2773 10.901C63.1514 10.7278 63.0545 10.5844 62.9867 10.4708H62.8765V11.4286H61.9812ZM62.8924 8.31168C62.8924 8.78247 62.959 9.19779 63.0926 9.55763C63.2262 9.91477 63.4212 10.1948 63.6778 10.3977C63.9344 10.5979 64.2484 10.6981 64.6202 10.6981C65.0077 10.6981 65.331 10.5925 65.5902 10.3815C65.8519 10.1678 66.0483 9.88096 66.1792 9.5211C66.3128 9.15856 66.3796 8.75541 66.3796 8.31168C66.3796 7.87338 66.3141 7.47836 66.1832 7.12663C66.0549 6.77219 65.8598 6.49216 65.598 6.28654C65.3388 6.0782 65.013 5.97404 64.6202 5.97404C64.2431 5.97404 63.9264 6.07278 63.6698 6.27029C63.4133 6.4651 63.2195 6.73838 63.0886 7.09011C62.9577 7.43914 62.8924 7.84634 62.8924 8.31168ZM69.9824 3.1169V11.4286H69.0557V3.1169H69.9824ZM74.5407 11.5585C73.9595 11.5585 73.4581 11.4259 73.0365 11.1607C72.6176 10.8929 72.2943 10.5195 72.0667 10.0406C71.8415 9.55898 71.729 8.99893 71.729 8.36039C71.729 7.72186 71.8415 7.15909 72.0667 6.67207C72.2943 6.18236 72.6112 5.80087 73.0168 5.52759C73.4253 5.25164 73.9017 5.11365 74.4462 5.11365C74.7605 5.11365 75.0708 5.16775 75.3771 5.27598C75.6835 5.38421 75.9621 5.56007 76.2136 5.80357C76.4648 6.04437 76.665 6.36364 76.8143 6.76138C76.9636 7.15909 77.0381 7.6488 77.0381 8.23052V8.63637H72.3885V7.80844H76.0957C76.0957 7.45671 76.0276 7.14286 75.8916 6.86688C75.758 6.59091 75.5669 6.3731 75.3181 6.21347C75.0721 6.05386 74.7815 5.97404 74.4462 5.97404C74.0771 5.97404 73.7577 6.06874 73.4881 6.25813C73.2212 6.4448 73.0155 6.68832 72.8715 6.98864C72.7276 7.28896 72.6557 7.61093 72.6557 7.95454V8.5065C72.6557 8.97728 72.7342 9.37635 72.8912 9.70373C73.0509 10.0284 73.2723 10.276 73.5549 10.4464C73.8376 10.6142 74.1662 10.6981 74.5407 10.6981C74.784 10.6981 75.004 10.6629 75.2004 10.5925C75.3993 10.5195 75.5709 10.4112 75.7149 10.2679C75.8588 10.1218 75.9701 9.94048 76.0486 9.72403L76.9439 9.98378C76.8497 10.2976 76.6913 10.5736 76.4688 10.8117C76.2461 11.0471 75.9714 11.2311 75.6441 11.3636C75.3168 11.4935 74.949 11.5585 74.5407 11.5585Z" fill="#B0B0B0"/>
<path d="M136.037 7.27274C136.037 8.14935 135.884 8.90693 135.578 9.54547C135.271 10.184 134.851 10.6764 134.317 11.0227C133.783 11.3691 133.173 11.5422 132.487 11.5422C131.801 11.5422 131.191 11.3691 130.657 11.0227C130.123 10.6764 129.703 10.184 129.396 9.54547C129.09 8.90693 128.937 8.14935 128.937 7.27274C128.937 6.39612 129.09 5.63854 129.396 5C129.703 4.36147 130.123 3.86906 130.657 3.52272C131.191 3.17642 131.801 3.00325 132.487 3.00325C133.173 3.00325 133.783 3.17642 134.317 3.52272C134.851 3.86906 135.271 4.36147 135.578 5C135.884 5.63854 136.037 6.39612 136.037 7.27274ZM135.095 7.27274C135.095 6.55303 134.978 5.94563 134.745 5.4505C134.515 4.95536 134.202 4.58062 133.807 4.32631C133.414 4.07198 132.974 3.9448 132.487 3.9448C132 3.9448 131.559 4.07198 131.164 4.32631C130.771 4.58062 130.458 4.95536 130.225 5.4505C129.995 5.94563 129.88 6.55303 129.88 7.27274C129.88 7.99244 129.995 8.59984 130.225 9.09498C130.458 9.59011 130.771 9.96483 131.164 10.2192C131.559 10.4735 132 10.6006 132.487 10.6006C132.974 10.6006 133.414 10.4735 133.807 10.2192C134.202 9.96483 134.515 9.59011 134.745 9.09498C134.978 8.59984 135.095 7.99244 135.095 7.27274ZM140.331 11.5585C139.766 11.5585 139.279 11.4205 138.87 11.1445C138.462 10.8685 138.148 10.4884 137.928 10.0041C137.708 9.51975 137.598 8.96645 137.598 8.34416C137.598 7.71104 137.711 7.15232 137.936 6.66803C138.164 6.18101 138.48 5.80087 138.886 5.52759C139.294 5.25164 139.771 5.11365 140.316 5.11365C140.74 5.11365 141.122 5.19482 141.462 5.35715C141.802 5.51948 142.081 5.74675 142.299 6.03898C142.516 6.33118 142.651 6.67207 142.703 7.0617H141.776C141.706 6.7776 141.549 6.52597 141.305 6.30682C141.064 6.08496 140.74 5.97404 140.331 5.97404C139.97 5.97404 139.653 6.07143 139.381 6.26624C139.111 6.45834 138.901 6.73024 138.749 7.08199C138.599 7.43102 138.525 7.84092 138.525 8.31168C138.525 8.79328 138.598 9.21267 138.745 9.56981C138.894 9.92695 139.103 10.2043 139.373 10.4018C139.645 10.5993 139.965 10.6981 140.331 10.6981C140.572 10.6981 140.791 10.6548 140.987 10.5682C141.183 10.4816 141.35 10.3571 141.486 10.1948C141.622 10.0325 141.719 9.83767 141.776 9.6104H142.703C142.651 9.97836 142.521 10.3098 142.314 10.6047C142.11 10.8969 141.839 11.1296 141.501 11.3028C141.166 11.4732 140.776 11.5585 140.331 11.5585ZM148.191 8.87987V5.19482H149.118V11.4286H148.191V10.3734H148.128C147.987 10.6899 147.767 10.9592 147.468 11.181C147.17 11.4002 146.793 11.5097 146.338 11.5097C145.96 11.5097 145.625 11.4245 145.332 11.2541C145.039 11.0809 144.809 10.8212 144.641 10.4748C144.474 10.1258 144.39 9.68615 144.39 9.15584V5.19482H145.316V9.09091C145.316 9.54547 145.44 9.90801 145.686 10.1786C145.934 10.4491 146.251 10.5844 146.636 10.5844C146.866 10.5844 147.101 10.5235 147.339 10.4018C147.58 10.28 147.781 10.0934 147.944 9.84172C148.108 9.59011 148.191 9.26949 148.191 8.87987ZM151.147 13.7662V5.19482H152.042V6.18508H152.152C152.22 6.07685 152.315 5.93886 152.435 5.77111C152.558 5.60064 152.733 5.44915 152.961 5.31655C153.192 5.18128 153.503 5.11365 153.896 5.11365C154.404 5.11365 154.851 5.24487 155.239 5.50732C155.626 5.76976 155.929 6.14179 156.146 6.62339C156.363 7.10499 156.472 7.67317 156.472 8.32794C156.472 8.9881 156.363 9.56035 156.146 10.0446C155.929 10.5262 155.628 10.8996 155.243 11.1648C154.858 11.4272 154.414 11.5585 153.912 11.5585C153.524 11.5585 153.214 11.4922 152.981 11.3596C152.748 11.2243 152.568 11.0714 152.443 10.901C152.317 10.7278 152.22 10.5844 152.152 10.4708H152.074V13.7662H151.147ZM152.058 8.31168C152.058 8.78247 152.125 9.19779 152.258 9.55763C152.392 9.91477 152.587 10.1948 152.843 10.3977C153.1 10.5979 153.414 10.6981 153.786 10.6981C154.173 10.6981 154.497 10.5925 154.756 10.3815C155.018 10.1678 155.214 9.88096 155.345 9.5211C155.478 9.15856 155.545 8.75541 155.545 8.31168C155.545 7.87338 155.48 7.47836 155.349 7.12663C155.22 6.77219 155.025 6.49216 154.764 6.28654C154.505 6.0782 154.179 5.97404 153.786 5.97404C153.409 5.97404 153.092 6.07278 152.836 6.27029C152.579 6.4651 152.385 6.73838 152.254 7.09011C152.123 7.43914 152.058 7.84634 152.058 8.31168ZM159.992 11.5747C159.61 11.5747 159.263 11.5003 158.952 11.3515C158.64 11.2 158.393 10.9822 158.21 10.6981C158.026 10.4113 157.935 10.0649 157.935 9.65909C157.935 9.30195 158.003 9.01246 158.139 8.79059C158.275 8.56602 158.457 8.39015 158.685 8.263C158.912 8.13582 159.164 8.04112 159.439 7.97891C159.716 7.91397 159.995 7.86256 160.275 7.82469C160.642 7.77598 160.939 7.73946 161.167 7.71511C161.397 7.68805 161.564 7.64341 161.669 7.58117C161.777 7.51895 161.83 7.41072 161.83 7.25651V7.22403C161.83 6.82359 161.724 6.51246 161.512 6.29059C161.303 6.06874 160.985 5.95779 160.558 5.95779C160.115 5.95779 159.769 6.0579 159.517 6.25813C159.266 6.45834 159.089 6.67207 158.987 6.89936L158.107 6.57468C158.264 6.19589 158.474 5.90099 158.736 5.68995C159 5.47619 159.288 5.32739 159.6 5.2435C159.914 5.15694 160.223 5.11365 160.527 5.11365C160.72 5.11365 160.943 5.13799 161.194 5.1867C161.448 5.23269 161.693 5.32874 161.928 5.47484C162.167 5.62094 162.364 5.84144 162.521 6.13637C162.678 6.43127 162.757 6.82631 162.757 7.32142V11.4286H161.83V10.5844H161.783C161.72 10.7197 161.616 10.8645 161.469 11.0187C161.322 11.1729 161.127 11.3041 160.884 11.4123C160.64 11.5206 160.343 11.5747 159.992 11.5747ZM160.134 10.7143C160.5 10.7143 160.809 10.6399 161.06 10.4911C161.315 10.3423 161.506 10.1502 161.634 9.91477C161.765 9.67939 161.83 9.43182 161.83 9.17207V8.29546C161.791 8.34416 161.704 8.3888 161.571 8.4294C161.44 8.46727 161.288 8.50108 161.116 8.53084C160.945 8.5579 160.779 8.58224 160.617 8.60389C160.457 8.62284 160.327 8.63907 160.228 8.6526C159.987 8.68508 159.762 8.73783 159.553 8.81088C159.346 8.88124 159.178 8.9881 159.05 9.1315C158.924 9.27219 158.861 9.46428 158.861 9.7078C158.861 10.0406 158.981 10.2922 159.219 10.4627C159.46 10.6304 159.765 10.7143 160.134 10.7143ZM167.058 11.5585C166.555 11.5585 166.111 11.4272 165.727 11.1648C165.342 10.8996 165.041 10.5262 164.823 10.0446C164.606 9.56035 164.498 8.9881 164.498 8.32794C164.498 7.67317 164.606 7.10499 164.823 6.62339C165.041 6.14179 165.343 5.76976 165.731 5.50732C166.118 5.24487 166.566 5.11365 167.074 5.11365C167.466 5.11365 167.777 5.18128 168.004 5.31655C168.235 5.44915 168.41 5.60064 168.531 5.77111C168.654 5.93886 168.749 6.07685 168.817 6.18508H168.896V3.1169H169.822V11.4286H168.927V10.4708H168.817C168.749 10.5844 168.652 10.7278 168.527 10.901C168.401 11.0714 168.222 11.2243 167.989 11.3596C167.756 11.4922 167.445 11.5585 167.058 11.5585ZM167.184 10.6981C167.555 10.6981 167.87 10.5979 168.126 10.3977C168.383 10.1948 168.578 9.91477 168.711 9.55763C168.845 9.19779 168.911 8.78247 168.911 8.31168C168.911 7.84634 168.846 7.43914 168.715 7.09011C168.584 6.73838 168.391 6.4651 168.134 6.27029C167.877 6.07278 167.561 5.97404 167.184 5.97404C166.791 5.97404 166.464 6.0782 166.202 6.28654C165.943 6.49216 165.748 6.77219 165.617 7.12663C165.488 7.47836 165.424 7.87338 165.424 8.31168C165.424 8.75541 165.49 9.15856 165.621 9.5211C165.754 9.88096 165.95 10.1678 166.21 10.3815C166.472 10.5925 166.796 10.6981 167.184 10.6981ZM174.431 11.5585C173.886 11.5585 173.408 11.4245 172.998 11.1567C172.589 10.8888 172.27 10.5141 172.039 10.0325C171.811 9.55086 171.698 8.9881 171.698 8.34416C171.698 7.69482 171.811 7.12798 172.039 6.64368C172.27 6.15936 172.589 5.78327 172.998 5.51543C173.408 5.24757 173.886 5.11365 174.431 5.11365C174.975 5.11365 175.452 5.24757 175.86 5.51543C176.271 5.78327 176.591 6.15936 176.818 6.64368C177.049 7.12798 177.164 7.69482 177.164 8.34416C177.164 8.9881 177.049 9.55086 176.818 10.0325C176.591 10.5141 176.271 10.8888 175.86 11.1567C175.452 11.4245 174.975 11.5585 174.431 11.5585ZM174.431 10.6981C174.844 10.6981 175.185 10.5885 175.452 10.3693C175.719 10.1502 175.917 9.86202 176.045 9.50487C176.173 9.14773 176.237 8.76083 176.237 8.34416C176.237 7.9275 176.173 7.53923 176.045 7.17939C175.917 6.81955 175.719 6.52869 175.452 6.30682C175.185 6.08496 174.844 5.97404 174.431 5.97404C174.017 5.97404 173.677 6.08496 173.41 6.30682C173.143 6.52869 172.945 6.81955 172.817 7.17939C172.689 7.53923 172.624 7.9275 172.624 8.34416C172.624 8.76083 172.689 9.14773 172.817 9.50487C172.945 9.86202 173.143 10.1502 173.41 10.3693C173.677 10.5885 174.017 10.6981 174.431 10.6981Z" fill="#B0B0B0"/>
<path d="M233.175 5.19482C233.129 4.78355 232.936 4.46428 232.602 4.23701C232.266 4.00974 231.855 3.89612 231.368 3.89612C231.012 3.89612 230.7 3.95564 230.435 4.07468C230.169 4.19372 229.964 4.35742 229.813 4.56574C229.667 4.77408 229.594 5.01082 229.594 5.27598C229.594 5.49783 229.645 5.68858 229.747 5.84821C229.851 6.00515 229.986 6.13637 230.147 6.24188C230.309 6.34469 230.479 6.42992 230.658 6.49756C230.835 6.5625 230.999 6.61527 231.149 6.65584L231.965 6.88311C232.175 6.93994 232.408 7.0184 232.664 7.11852C232.923 7.21861 233.171 7.35525 233.407 7.52842C233.644 7.69886 233.841 7.91802 233.996 8.18588C234.15 8.45374 234.228 8.78247 234.228 9.17207C234.228 9.62122 234.113 10.0271 233.885 10.3896C233.662 10.7522 233.33 11.0403 232.896 11.2541C232.465 11.4678 231.939 11.5747 231.322 11.5747C230.744 11.5747 230.247 11.4786 229.824 11.2865C229.406 11.0944 229.077 10.8266 228.836 10.483C228.597 10.1393 228.462 9.74026 228.431 9.28572H229.437C229.462 9.59957 229.566 9.85932 229.743 10.0649C229.924 10.2679 230.152 10.4194 230.426 10.5195C230.705 10.6169 231.001 10.6656 231.322 10.6656C231.693 10.6656 232.027 10.6034 232.324 10.4789C232.618 10.3517 232.852 10.1759 233.027 9.9513C233.199 9.72403 233.286 9.45888 233.286 9.15584C233.286 8.87987 233.21 8.65532 233.06 8.48215C232.912 8.30899 232.715 8.1683 232.472 8.06007C232.228 7.95184 231.965 7.85715 231.682 7.77598L230.694 7.48378C230.065 7.29708 229.568 7.03059 229.201 6.68426C228.834 6.33795 228.652 5.88474 228.652 5.32469C228.652 4.85932 228.774 4.45347 229.017 4.10716C229.263 3.75813 229.592 3.48755 230.006 3.29546C230.422 3.10064 230.886 3.00325 231.399 3.00325C231.919 3.00325 232.379 3.0993 232.781 3.29141C233.186 3.4808 233.505 3.74053 233.741 4.07061C233.978 4.40071 234.104 4.77543 234.117 5.19482H233.175ZM238.563 11.5584C237.983 11.5584 237.481 11.4259 237.059 11.1607C236.641 10.8928 236.318 10.5195 236.09 10.0406C235.864 9.55897 235.752 8.99893 235.752 8.36039C235.752 7.72186 235.864 7.15909 236.09 6.67207C236.318 6.18236 236.634 5.80087 237.041 5.52759C237.448 5.25164 237.926 5.11365 238.47 5.11365C238.784 5.11365 239.094 5.16775 239.401 5.27598C239.706 5.38421 239.985 5.56007 240.237 5.80357C240.487 6.04437 240.688 6.36364 240.839 6.76138C240.987 7.15909 241.062 7.6488 241.062 8.23052V8.63637H236.411V7.80844H240.12C240.12 7.45671 240.051 7.14286 239.914 6.86688C239.781 6.59091 239.589 6.3731 239.341 6.21347C239.096 6.05386 238.804 5.97404 238.47 5.97404C238.1 5.97404 237.782 6.06874 237.512 6.25813C237.245 6.4448 237.039 6.68832 236.895 6.98864C236.751 7.28896 236.678 7.61093 236.678 7.95454V8.5065C236.678 8.97728 236.758 9.37635 236.915 9.70373C237.074 10.0284 237.295 10.276 237.579 10.4464C237.862 10.6142 238.189 10.6981 238.563 10.6981C238.808 10.6981 239.027 10.6629 239.224 10.5925C239.423 10.5195 239.593 10.4112 239.737 10.2679C239.881 10.1218 239.994 9.94048 240.071 9.72403L240.967 9.98378C240.872 10.2976 240.715 10.5736 240.491 10.8117C240.27 11.0471 239.994 11.2311 239.666 11.3636C239.339 11.4935 238.972 11.5584 238.563 11.5584ZM243.729 3.1169V11.4286H242.803V3.1169H243.729ZM248.287 11.5584C247.706 11.5584 247.206 11.4259 246.784 11.1607C246.366 10.8928 246.043 10.5195 245.815 10.0406C245.589 9.55897 245.476 8.99893 245.476 8.36039C245.476 7.72186 245.589 7.15909 245.815 6.67207C246.043 6.18236 246.359 5.80087 246.764 5.52759C247.173 5.25164 247.648 5.11365 248.195 5.11365C248.509 5.11365 248.818 5.16775 249.124 5.27598C249.431 5.38421 249.71 5.56007 249.962 5.80357C250.212 6.04437 250.413 6.36364 250.561 6.76138C250.711 7.15909 250.784 7.6488 250.784 8.23052V8.63637H246.136V7.80844H249.842C249.842 7.45671 249.774 7.14286 249.639 6.86688C249.506 6.59091 249.314 6.3731 249.066 6.21347C248.818 6.05386 248.529 5.97404 248.195 5.97404C247.825 5.97404 247.505 6.06874 247.235 6.25813C246.969 6.4448 246.764 6.68832 246.62 6.98864C246.474 7.28896 246.403 7.61093 246.403 7.95454V8.5065C246.403 8.97728 246.481 9.37635 246.638 9.70373C246.799 10.0284 247.02 10.276 247.301 10.4464C247.584 10.6142 247.914 10.6981 248.287 10.6981C248.531 10.6981 248.752 10.6629 248.947 10.5925C249.146 10.5195 249.318 10.4112 249.462 10.2679C249.606 10.1218 249.716 9.94048 249.796 9.72403L250.692 9.98378C250.596 10.2976 250.439 10.5736 250.216 10.8117C249.993 11.0471 249.718 11.2311 249.391 11.3636C249.064 11.4935 248.697 11.5584 248.287 11.5584ZM254.978 11.5584C254.412 11.5584 253.925 11.4205 253.516 11.1445C253.109 10.8685 252.795 10.4884 252.574 10.0041C252.355 9.51975 252.244 8.96645 252.244 8.34416C252.244 7.71104 252.357 7.15232 252.583 6.66803C252.81 6.18101 253.127 5.80087 253.531 5.52759C253.941 5.25164 254.416 5.11365 254.962 5.11365C255.385 5.11365 255.767 5.19482 256.108 5.35715C256.449 5.51948 256.727 5.74675 256.944 6.03898C257.163 6.33118 257.298 6.67207 257.349 7.0617H256.422C256.351 6.7776 256.194 6.52597 255.951 6.30682C255.71 6.08496 255.385 5.97404 254.978 5.97404C254.615 5.97404 254.299 6.07143 254.027 6.26624C253.757 6.45834 253.547 6.73024 253.394 7.08199C253.246 7.43102 253.171 7.84092 253.171 8.31168C253.171 8.79328 253.244 9.21267 253.39 9.56981C253.54 9.92695 253.75 10.2043 254.02 10.4018C254.292 10.5993 254.611 10.6981 254.978 10.6981C255.219 10.6981 255.438 10.6548 255.632 10.5682C255.829 10.4816 255.995 10.3571 256.132 10.1948C256.267 10.0325 256.365 9.83767 256.422 9.6104H257.349C257.298 9.97836 257.167 10.3098 256.959 10.6047C256.756 10.8969 256.486 11.1296 256.148 11.3028C255.812 11.4732 255.422 11.5584 254.978 11.5584ZM261.487 11.5584C260.921 11.5584 260.434 11.4205 260.025 11.1445C259.618 10.8685 259.304 10.4884 259.083 10.0041C258.864 9.51975 258.753 8.96645 258.753 8.34416C258.753 7.71104 258.866 7.15232 259.092 6.66803C259.319 6.18101 259.636 5.80087 260.04 5.52759C260.45 5.25164 260.925 5.11365 261.471 5.11365C261.894 5.11365 262.276 5.19482 262.617 5.35715C262.958 5.51948 263.236 5.74675 263.453 6.03898C263.672 6.33118 263.807 6.67207 263.858 7.0617H262.931C262.86 6.7776 262.703 6.52597 262.46 6.30682C262.219 6.08496 261.894 5.97404 261.487 5.97404C261.124 5.97404 260.808 6.07143 260.536 6.26624C260.266 6.45834 260.056 6.73024 259.903 7.08199C259.755 7.43102 259.68 7.84092 259.68 8.31168C259.68 8.79328 259.753 9.21267 259.899 9.56981C260.049 9.92695 260.259 10.2043 260.529 10.4018C260.801 10.5993 261.12 10.6981 261.487 10.6981C261.728 10.6981 261.947 10.6548 262.141 10.5682C262.338 10.4816 262.504 10.3571 262.641 10.1948C262.776 10.0325 262.874 9.83767 262.931 9.6104H263.858C263.807 9.97836 263.676 10.3098 263.468 10.6047C263.265 10.8969 262.995 11.1296 262.657 11.3028C262.321 11.4732 261.931 11.5584 261.487 11.5584ZM265.545 11.4286V5.19482H266.472V11.4286H265.545ZM266.016 4.15584C265.835 4.15584 265.68 4.09226 265.55 3.9651C265.421 3.83795 265.357 3.68508 265.357 3.5065C265.357 3.32794 265.421 3.17507 265.55 3.04789C265.68 2.92074 265.835 2.85715 266.016 2.85715C266.198 2.85715 266.35 2.92074 266.479 3.04789C266.611 3.17507 266.675 3.32794 266.675 3.5065C266.675 3.68508 266.611 3.83795 266.479 3.9651C266.35 4.09226 266.198 4.15584 266.016 4.15584ZM270.951 11.5584C270.406 11.5584 269.929 11.4245 269.517 11.1567C269.11 10.8888 268.79 10.5141 268.56 10.0325C268.332 9.55086 268.217 8.9881 268.217 8.34416C268.217 7.69482 268.332 7.12798 268.56 6.64368C268.79 6.15936 269.11 5.78327 269.517 5.51543C269.929 5.24757 270.406 5.11365 270.951 5.11365C271.495 5.11365 271.972 5.24757 272.382 5.51543C272.791 5.78327 273.111 6.15936 273.339 6.64368C273.569 7.12798 273.684 7.69482 273.684 8.34416C273.684 8.9881 273.569 9.55086 273.339 10.0325C273.111 10.5141 272.791 10.8888 272.382 11.1567C271.972 11.4245 271.495 11.5584 270.951 11.5584ZM270.951 10.6981C271.364 10.6981 271.705 10.5885 271.972 10.3693C272.24 10.1502 272.437 9.86202 272.565 9.50487C272.693 9.14773 272.758 8.76083 272.758 8.34416C272.758 7.9275 272.693 7.53923 272.565 7.17939C272.437 6.81955 272.24 6.52869 271.972 6.30682C271.705 6.08496 271.364 5.97404 270.951 5.97404C270.537 5.97404 270.196 6.08496 269.931 6.30682C269.663 6.52869 269.464 6.81955 269.336 7.17939C269.208 7.53923 269.144 7.9275 269.144 8.34416C269.144 8.76083 269.208 9.14773 269.336 9.50487C269.464 9.86202 269.663 10.1502 269.931 10.3693C270.196 10.5885 270.537 10.6981 270.951 10.6981ZM276.358 7.67859V11.4286H275.431V5.19482H276.327V6.16883H276.405C276.546 5.85228 276.761 5.59795 277.048 5.40586C277.336 5.21104 277.709 5.11365 278.163 5.11365C278.572 5.11365 278.93 5.20021 279.236 5.37338C279.543 5.54384 279.78 5.80357 279.95 6.1526C280.12 6.49893 280.206 6.93724 280.206 7.46755V11.4286H279.28V7.53246C279.28 7.04275 279.156 6.66126 278.91 6.38798C278.665 6.11203 278.327 5.97404 277.897 5.97404C277.601 5.97404 277.336 6.04032 277.103 6.1729C276.873 6.30547 276.692 6.49893 276.557 6.75326C276.424 7.00757 276.358 7.31603 276.358 7.67859ZM284.006 11.5747C283.623 11.5747 283.276 11.5003 282.967 11.3515C282.655 11.2 282.407 10.9822 282.224 10.6981C282.04 10.4112 281.949 10.0649 281.949 9.65909C281.949 9.30195 282.016 9.01246 282.153 8.79059C282.29 8.56602 282.471 8.39015 282.699 8.263C282.927 8.13582 283.177 8.04112 283.453 7.97891C283.73 7.91397 284.008 7.86256 284.289 7.82469C284.656 7.77598 284.953 7.73946 285.18 7.71511C285.411 7.68805 285.579 7.64341 285.683 7.58117C285.791 7.51895 285.844 7.41072 285.844 7.25651V7.22403C285.844 6.82359 285.738 6.51246 285.526 6.29059C285.318 6.06874 284.999 5.95779 284.572 5.95779C284.13 5.95779 283.783 6.0579 283.531 6.25813C283.281 6.45834 283.104 6.67207 283.002 6.89936L282.122 6.57468C282.279 6.19589 282.489 5.90099 282.75 5.68995C283.013 5.47619 283.303 5.32739 283.612 5.2435C283.929 5.15694 284.236 5.11365 284.541 5.11365C284.734 5.11365 284.957 5.13799 285.207 5.1867C285.461 5.23269 285.707 5.32874 285.941 5.47484C286.18 5.62094 286.377 5.84144 286.536 6.13637C286.693 6.43127 286.771 6.82631 286.771 7.32142V11.4286H285.844V10.5844H285.798C285.733 10.7197 285.629 10.8645 285.484 11.0187C285.335 11.1729 285.141 11.3041 284.897 11.4123C284.654 11.5206 284.358 11.5747 284.006 11.5747ZM284.148 10.7143C284.515 10.7143 284.822 10.6399 285.074 10.4911C285.329 10.3423 285.519 10.1502 285.647 9.91477C285.778 9.67939 285.844 9.43182 285.844 9.17207V8.29546C285.804 8.34416 285.718 8.3888 285.585 8.4294C285.455 8.46727 285.302 8.50108 285.13 8.53084C284.959 8.5579 284.793 8.58224 284.63 8.60389C284.471 8.62284 284.342 8.63907 284.243 8.6526C284.002 8.68508 283.776 8.73783 283.566 8.81088C283.36 8.88124 283.192 8.9881 283.064 9.1315C282.938 9.27219 282.876 9.46428 282.876 9.7078C282.876 10.0406 282.995 10.2922 283.232 10.4627C283.473 10.6304 283.778 10.7143 284.148 10.7143ZM291.072 11.5584C290.568 11.5584 290.126 11.4272 289.741 11.1648C289.356 10.8996 289.055 10.5262 288.836 10.0446C288.62 9.56035 288.511 8.9881 288.511 8.32794C288.511 7.67317 288.62 7.10499 288.836 6.62339C289.055 6.14179 289.356 5.76976 289.745 5.50732C290.132 5.24487 290.579 5.11365 291.088 5.11365C291.479 5.11365 291.791 5.18128 292.019 5.31655C292.249 5.44915 292.424 5.60064 292.545 5.77111C292.667 5.93886 292.762 6.07685 292.831 6.18508H292.91V3.1169H293.837V11.4286H292.941V10.4708H292.831C292.762 10.5844 292.667 10.7278 292.541 10.901C292.415 11.0714 292.236 11.2243 292.004 11.3596C291.769 11.4922 291.459 11.5584 291.072 11.5584ZM291.198 10.6981C291.57 10.6981 291.884 10.5979 292.141 10.3977C292.397 10.1948 292.592 9.91477 292.725 9.55763C292.859 9.19779 292.926 8.78247 292.926 8.31168C292.926 7.84634 292.859 7.43914 292.729 7.09011C292.598 6.73838 292.404 6.4651 292.147 6.27029C291.891 6.07278 291.574 5.97404 291.198 5.97404C290.805 5.97404 290.477 6.0782 290.217 6.28654C289.956 6.49216 289.761 6.77219 289.63 7.12663C289.502 7.47836 289.438 7.87338 289.438 8.31168C289.438 8.75541 289.504 9.15856 289.635 9.5211C289.768 9.88096 289.964 10.1678 290.223 10.3815C290.486 10.5925 290.809 10.6981 291.198 10.6981ZM298.444 11.5584C297.9 11.5584 297.422 11.4245 297.011 11.1567C296.604 10.8888 296.283 10.5141 296.053 10.0325C295.825 9.55086 295.713 8.9881 295.713 8.34416C295.713 7.69482 295.825 7.12798 296.053 6.64368C296.283 6.15936 296.604 5.78327 297.011 5.51543C297.422 5.24757 297.9 5.11365 298.444 5.11365C298.99 5.11365 299.466 5.24757 299.875 5.51543C300.284 5.78327 300.605 6.15936 300.833 6.64368C301.063 7.12798 301.178 7.69482 301.178 8.34416C301.178 8.9881 301.063 9.55086 300.833 10.0325C300.605 10.5141 300.284 10.8888 299.875 11.1567C299.466 11.4245 298.99 11.5584 298.444 11.5584ZM298.444 10.6981C298.858 10.6981 299.198 10.5885 299.466 10.3693C299.733 10.1502 299.93 9.86202 300.058 9.50487C300.187 9.14773 300.251 8.76083 300.251 8.34416C300.251 7.9275 300.187 7.53923 300.058 7.17939C299.93 6.81955 299.733 6.52869 299.466 6.30682C299.198 6.08496 298.858 5.97404 298.444 5.97404C298.03 5.97404 297.69 6.08496 297.424 6.30682C297.157 6.52869 296.96 6.81955 296.832 7.17939C296.703 7.53923 296.639 7.9275 296.639 8.34416C296.639 8.76083 296.703 9.14773 296.832 9.50487C296.96 9.86202 297.157 10.1502 297.424 10.3693C297.69 10.5885 298.03 10.6981 298.444 10.6981Z" fill="#B0B0B0"/>
</svg>
