<svg width="262" height="219" viewBox="0 0 262 219" fill="none" xmlns="http://www.w3.org/2000/svg">
<path d="M231.756 4.43071C232.26 4.61392 232.717 4.77422 232.786 4.77422C233.129 4.77422 261.052 32.9876 261.463 33.7433C262.219 35.1402 262.173 37.5219 261.349 38.8959C260.983 39.4913 245.809 54.8575 225.004 75.6511L189.278 111.376L224.753 146.757C250.043 171.97 260.365 182.413 260.708 183.1C261.418 184.566 261.509 185.871 261.052 187.314C260.685 188.482 259.884 189.329 246.541 202.703C238.37 210.924 232.054 217.061 231.527 217.359C230.291 218.023 227.774 218.046 226.538 217.382C225.348 216.764 123.706 115.063 123.088 113.895C122.424 112.612 122.424 110.345 123.088 109.086C123.683 107.941 225.988 5.57573 227.293 4.82002C228.46 4.13301 230.497 3.9498 231.756 4.43071Z" fill="white"/>
<path d="M110.82 0.274776C111.331 0.461681 111.795 0.625223 111.865 0.625223C111.911 0.625223 118.39 7.07344 126.216 14.9235C134.716 23.4744 140.661 29.6188 140.939 30.1796C141.706 31.6281 141.659 33.8242 140.823 35.3428C140.336 36.2072 130.466 46.2767 103.946 72.9574L67.7188 109.381L103.76 145.593C126.727 168.7 139.964 182.133 140.266 182.741C140.823 183.839 140.893 185.801 140.452 187.18C140.196 187.951 137.503 190.778 125.938 202.436C117.972 210.496 111.284 217.038 110.704 217.388C109.357 218.206 106.895 218.276 105.572 217.552C105.107 217.295 81.3272 193.581 52.717 164.868L0.698484 112.651L0.280478 111.296C-0.207196 109.614 -0.0678604 108.259 0.768151 106.694C1.18616 105.899 16.2808 90.62 53.3904 53.4025C82.0006 24.6892 105.827 0.952307 106.315 0.671949C107.476 -0.0289444 109.543 -0.215849 110.82 0.274776Z" fill="white"/>
</svg>
