<svg width="300" height="300" viewBox="0 0 300 300" fill="none" xmlns="http://www.w3.org/2000/svg">
<rect width="300" height="300" rx="29" fill="#474747"/>
<path d="M179.166 43.2694C179.669 43.4526 180.127 43.6129 180.196 43.6129C180.539 43.6129 208.461 71.8262 208.873 72.582C209.628 73.9789 209.583 76.3605 208.759 77.7346C208.393 78.33 193.218 93.6962 172.414 114.49L136.687 150.215L172.162 185.596C197.452 210.809 207.775 221.252 208.118 221.939C208.827 223.404 208.919 224.71 208.461 226.152C208.095 227.32 207.294 228.168 193.951 241.542C185.78 249.763 179.463 255.9 178.937 256.198C177.701 256.862 175.183 256.885 173.947 256.221C172.757 255.602 71.1157 153.901 70.4978 152.734C69.8341 151.451 69.8341 149.184 70.4978 147.924C71.0929 146.779 173.398 44.4144 174.703 43.6587C175.87 42.9717 177.907 42.7885 179.166 43.2694Z" fill="#151515"/>
</svg>
