<svg width="437" height="36" viewBox="0 0 437 36" fill="none" xmlns="http://www.w3.org/2000/svg">
<path d="M1 34.4147C1 34.4147 131.857 28.0636 215.727 28.0005C301.762 27.9358 436 34.4147 436 34.4147" stroke="#B0B0B0" stroke-width="3"/>
<path d="M97.7614 19V4.45455H102.676C103.817 4.45455 104.75 4.66051 105.474 5.07244C106.204 5.47964 106.743 6.03125 107.094 6.72727C107.444 7.4233 107.619 8.19981 107.619 9.05682C107.619 9.91383 107.444 10.6927 107.094 11.3935C106.748 12.0942 106.213 12.6529 105.489 13.0696C104.764 13.4815 103.836 13.6875 102.705 13.6875H99.1818V12.125H102.648C103.429 12.125 104.056 11.9901 104.53 11.7202C105.003 11.4503 105.347 11.0857 105.56 10.6264C105.777 10.1624 105.886 9.6392 105.886 9.05682C105.886 8.47443 105.777 7.9536 105.56 7.49432C105.347 7.03504 105.001 6.67519 104.523 6.41477C104.045 6.14962 103.41 6.01705 102.619 6.01705H99.5227V19H97.7614ZM129.969 19H128.122L133.463 4.45455H135.281L140.622 19H138.776L134.429 6.75568H134.315L129.969 19ZM130.651 13.3182H138.094V14.8807H130.651V13.3182ZM174.822 4.45455V19H173.117L165.191 7.57955H165.049V19H163.288V4.45455H164.992L172.947 15.9034H173.089V4.45455H174.822ZM197.951 6.01705V4.45455H208.86V6.01705H204.286V19H202.525V6.01705H197.951ZM230.876 19H229.029L234.37 4.45455H236.188L241.529 19H239.683L235.336 6.75568H235.223L230.876 19ZM231.558 13.3182H239.001V14.8807H231.558V13.3182ZM264.195 19V4.45455H265.956V17.4375H272.718V19H264.195ZM295.845 19V4.45455H297.606V17.4375H304.368V19H295.845ZM329.01 19H327.163L332.504 4.45455H334.322L339.663 19H337.816L333.47 6.75568H333.356L329.01 19ZM329.691 13.3182H337.135V14.8807H329.691V13.3182Z" fill="#B0B0B0"/>
</svg>
