<svg width="79" height="769" viewBox="0 0 79 769" fill="none" xmlns="http://www.w3.org/2000/svg">
<circle cx="39.0556" cy="39.0556" r="38.5556" stroke="white"/>
<circle cx="39.0556" cy="269.049" r="38.5556" stroke="white"/>
<circle cx="39.0556" cy="499.043" r="38.5556" stroke="white"/>
<circle cx="39.0556" cy="729.037" r="38.5556" stroke="white"/>
<path d="M60.8732 258.417L60.2789 257.823C59.6846 258.417 59.1963 258.703 58.7081 258.904C58.2199 259.201 57.6256 259.296 56.7447 259.296C55.0784 259.296 53.6032 258.703 52.5207 257.633C51.5337 256.647 50.8544 255.185 50.8544 253.416C50.8544 252.537 50.9499 251.944 51.1516 251.361C51.3532 250.873 51.6398 250.376 52.2341 249.793L52.8285 249.2L46.6198 243.012L13.0185 276.756L19.206 282.932L19.8003 282.339C20.3947 281.746 20.8829 281.46 21.3711 281.258C21.8593 281.057 22.4536 280.962 23.43 280.962C25.0963 280.962 26.5715 281.555 27.6541 282.625C28.6411 283.61 29.3203 285.073 29.3203 286.842C29.3203 287.721 29.2248 288.314 29.0232 288.897C28.8215 289.384 28.535 289.882 27.9406 290.465L27.3463 291.058L33.555 297.256L67.2623 263.608L61.0749 257.431L60.4805 258.025L60.8732 258.417L60.2789 259.01L64.7046 263.428L33.3533 294.703L28.9276 290.285L28.3333 290.878L28.9276 291.472C29.6175 290.783 30.1057 290.094 30.4029 289.31C30.7 288.526 30.7956 287.647 30.7956 286.662C30.7956 284.5 30.0102 282.636 28.6305 281.269C27.2508 279.902 25.3828 279.108 23.2284 279.108C22.2414 279.108 21.3605 279.203 20.5751 279.5C19.7897 279.796 19.0999 280.284 18.41 280.972L19.0043 281.566L19.5987 280.972L15.173 276.555L46.5242 245.269L50.9393 249.687L51.5337 249.094L50.9393 248.5C50.2495 249.189 49.7613 249.878 49.4641 250.662C49.1669 251.446 49.0714 252.325 49.0714 253.31C49.0714 255.471 49.8568 257.336 51.2365 258.703C52.6162 260.08 54.4841 260.864 56.6386 260.864C57.6256 260.864 58.5065 260.769 59.2919 260.472C60.0772 260.175 60.7671 259.688 61.457 258.999L60.8732 258.417Z" fill="white"/>
<path d="M34.4359 256.552L37.779 259.879L38.9571 258.703L35.6139 255.376" fill="white"/>
<path d="M50.2601 272.338L53.5926 275.675L54.7813 274.499L51.4381 271.162" fill="white"/>
<path d="M39.4453 261.553L42.7884 264.89L43.9665 263.714L40.6233 260.377" fill="white"/>
<path d="M45.2401 267.337L48.5832 270.675L49.7613 269.499L46.4287 266.161" fill="white"/>
<path d="M34.8803 46.7552C34.7015 46.7552 34.5227 46.7082 34.3634 46.6147C34.0508 46.4314 33.8588 46.0958 33.8588 45.7337V33.4719C33.8588 33.1098 34.0508 32.7742 34.3634 32.5909C34.6755 32.407 35.0616 32.4029 35.3782 32.5801L46.3591 38.7111C46.6824 38.8914 46.8826 39.2325 46.8826 39.6028C46.8826 39.9731 46.6819 40.3143 46.3591 40.4946L35.3782 46.6255C35.2235 46.7118 35.0519 46.7552 34.8803 46.7552ZM35.9017 35.212V43.9931L43.7656 39.6028L35.9017 35.212Z" fill="white"/>
<path d="M60.8566 23.144H16.933C16.3691 23.144 15.9115 23.6017 15.9115 24.1655V55.3921C15.9115 55.956 16.3691 56.4136 16.933 56.4136H60.8566C61.4204 56.4136 61.8781 55.956 61.8781 55.3921V24.1655C61.8781 23.6012 61.4204 23.144 60.8566 23.144ZM22.4301 38.7573H17.9545V35.3098H22.4301V38.7573ZM22.4301 40.8003V44.2478H17.9545V40.8003H22.4301ZM22.4301 33.2669H17.9545V29.8194H22.4301V33.2669ZM17.9545 46.2907H22.4301V49.7382H17.9545V46.2907ZM24.473 25.187H53.317V54.3706H24.473V25.187ZM55.3595 40.8003H59.8351V44.2478H55.3595V40.8003ZM55.3595 38.7573V35.3098H59.8351V38.7573H55.3595ZM55.3595 33.2669V29.8194H59.8351V33.2669H55.3595ZM55.3595 46.2907H59.8351V49.7382H55.3595V46.2907ZM59.8351 27.7764H55.3595V25.187H59.8351V27.7764ZM22.4301 25.187V27.7764H17.9545V25.187H22.4301ZM17.9545 51.7812H22.4301V54.3706H17.9545V51.7812ZM55.3595 54.3706V51.7812H59.8351V54.3706H55.3595Z" fill="white"/>
<path d="M54.0444 734.89C54.0444 735.289 53.7182 735.615 53.3192 735.615H28.8455C28.4464 735.615 28.1201 735.289 28.1201 734.89V734.407C28.1201 734.008 28.4463 733.681 28.8455 733.681H53.3192C53.718 733.681 54.0444 734.008 54.0444 734.407V734.89Z" fill="white"/>
<path d="M39.0808 714.801C39.0808 715.2 38.7546 715.526 38.3553 715.526H28.8459C28.4468 715.526 28.1205 715.2 28.1205 714.801V714.318C28.1205 713.919 28.4467 713.592 28.8459 713.592H38.3553C38.7544 713.592 39.0808 713.919 39.0808 714.318V714.801Z" fill="white"/>
<path d="M53.6773 741.587C53.6773 741.985 53.3508 742.312 52.9515 742.312H43.4421C43.043 742.312 42.7167 741.985 42.7167 741.587V741.103C42.7167 740.704 43.0428 740.378 43.4421 740.378H52.9515C53.3506 740.378 53.6773 740.704 53.6773 741.103V741.587Z" fill="white"/>
<path d="M44.122 721.497C44.122 721.896 43.7959 722.223 43.3969 722.223H28.8454C28.4463 722.223 28.1199 721.896 28.1199 721.497V721.014C28.1199 720.615 28.4461 720.289 28.8454 720.289H43.3969C43.7957 720.289 44.122 720.615 44.122 721.014V721.497Z" fill="white"/>
<path d="M54.0444 728.194C54.0444 728.593 53.7182 728.919 53.3192 728.919H28.8455C28.4464 728.919 28.1201 728.593 28.1201 728.194V727.71C28.1201 727.312 28.4463 726.985 28.8455 726.985H53.3192C53.718 726.985 54.0444 727.311 54.0444 727.71V728.194Z" fill="white"/>
<path d="M58.6698 716.214L46.9438 706.571C45.9729 705.772 44.2926 705.17 43.0356 705.17H24.5898C22.9952 705.17 21.6975 706.467 21.6975 708.062C21.6975 708.062 21.6975 739.188 21.6975 747.756C21.6975 750.735 24.5148 750.735 24.582 750.735C31.746 750.735 57.5748 750.735 57.5748 750.735C59.1697 750.735 60.4671 749.437 60.4671 747.842V720.019C60.4671 718.693 59.6942 717.056 58.6698 716.214ZM46.1419 709.538C46.1419 708.829 46.7286 709.373 46.7286 709.373L56.0233 717.314C56.0233 717.314 56.6181 717.9 55.5987 717.9C53.4219 717.9 46.8925 717.9 46.8925 717.9C46.4786 717.9 46.1419 717.563 46.1419 717.149C46.1419 717.149 46.1419 711.441 46.1419 709.538ZM57.5748 748.592C57.5748 748.592 31.0388 748.592 24.3794 748.592C24.2607 748.592 23.8395 748.558 23.8395 747.973C23.8395 739.909 23.8395 708.062 23.8395 708.062C23.8395 707.655 24.1833 707.312 24.5898 707.312H43.0354C43.3477 707.312 44.0002 707.477 44.0002 708.369V717.149C44.0002 718.744 45.2976 720.041 46.8925 720.041H57.7886C57.9875 720.041 58.3241 720.178 58.3241 720.659C58.3241 720.667 58.3253 747.842 58.3253 747.842C58.3253 748.256 57.9887 748.592 57.5748 748.592Z" fill="white"/>
<path d="M56.731 494.075V486.9C56.731 481.621 52.4094 477.346 47.0796 477.346H33.2012C27.8714 477.346 23.5498 481.621 23.5498 486.9V494.075C21.3377 494.136 19.5278 495.942 19.5278 498.155V517.096C19.5278 517.921 20.2031 518.571 21.036 518.571H30.0393C30.8722 518.571 31.5938 517.921 31.5938 517.096V516.679H48.6872V517.096C48.6872 517.921 49.4087 518.571 50.2417 518.571H59.2448C60.0778 518.571 60.7531 517.921 60.7531 517.096V498.155C60.753 495.942 58.9431 494.136 56.731 494.075ZM28.5773 515.584H22.5443V498.155C22.5443 497.551 23.0405 497.062 23.6503 497.062H27.4249C28.0348 497.062 28.5773 497.551 28.5773 498.155V515.584ZM48.6871 513.692H31.5937V506.223H48.6871V513.692ZM48.6871 498.155V501.045H31.5937V498.155C31.5937 495.904 29.698 494.075 27.4249 494.075H26.5662V486.9C26.5662 483.269 29.5346 480.333 33.2011 480.333H47.0795C50.7461 480.333 53.7145 483.269 53.7145 486.9V494.075H52.8558C50.5828 494.075 48.6871 495.904 48.6871 498.155ZM57.7365 515.584H51.7035V498.155C51.7035 497.551 52.246 497.062 52.8558 497.062H56.6304C57.2403 497.062 57.7365 497.551 57.7365 498.155V515.584Z" fill="white"/>
<line x1="38.5556" y1="229.994" x2="38.5556" y2="78.1111" stroke="white"/>
<line x1="40.7253" y1="459.988" x2="40.7253" y2="308.105" stroke="white"/>
<line x1="38.5556" y1="689.982" x2="38.5556" y2="538.099" stroke="white"/>
</svg>
