<svg width="79" height="769" viewBox="0 0 79 769" fill="none" xmlns="http://www.w3.org/2000/svg">
<circle cx="39.0556" cy="39.0494" r="38.5556" stroke="white"/>
<circle cx="39.0556" cy="269.043" r="38.5556" stroke="white"/>
<path d="M60.8733 28.4167L60.2789 27.8234C59.6846 28.4167 59.1964 28.7028 58.7082 28.9041C58.22 29.2007 57.6256 29.2961 56.7447 29.2961C55.0785 29.2961 53.6033 28.7028 52.5207 27.6327C51.5337 26.6474 50.8544 25.1854 50.8544 23.4161C50.8544 22.5368 50.95 21.9435 51.1516 21.3608C51.3533 20.8734 51.6398 20.3755 52.2342 19.7928L52.8285 19.1995L46.6198 13.0123L13.0186 46.7558L19.206 52.9324L19.8004 52.3391C20.3947 51.7458 20.8829 51.4598 21.3711 51.2585C21.8593 51.0572 22.4536 50.9618 23.4301 50.9618C25.0963 50.9618 26.5716 51.5551 27.6541 52.6252C28.6411 53.6104 29.3204 55.0725 29.3204 56.8418C29.3204 57.7211 29.2248 58.3144 29.0232 58.8971C28.8215 59.3844 28.535 59.8824 27.9406 60.4651L27.3463 61.0584L33.555 67.2562L67.2624 33.608L61.0749 27.4314L60.4806 28.0247L60.8733 28.4167L60.2789 29.01L64.7046 33.4279L33.3534 64.7029L28.9277 60.285L28.3333 60.8783L28.9277 61.4716C29.6175 60.7829 30.1057 60.0943 30.4029 59.3103C30.7001 58.5263 30.7956 57.6469 30.7956 56.6617C30.7956 54.5004 30.0102 52.6358 28.6305 51.2691C27.2508 49.9024 25.3829 49.1078 23.2284 49.1078C22.2414 49.1078 21.3605 49.2031 20.5751 49.4998C19.7897 49.7964 19.0999 50.2838 18.41 50.9724L19.0044 51.5657L19.5987 50.9724L15.173 46.5545L46.5243 15.269L50.9393 19.6869L51.5337 19.0936L50.9393 18.5003C50.2495 19.1889 49.7613 19.8776 49.4641 20.6616C49.167 21.4455 49.0714 22.3249 49.0714 23.3102C49.0714 25.4715 49.8568 27.3361 51.2365 28.7028C52.6162 30.0801 54.4841 30.8641 56.6386 30.8641C57.6256 30.8641 58.5065 30.7687 59.2919 30.4721C60.0773 30.1754 60.7671 29.6881 61.457 28.9994L60.8733 28.4167Z" fill="white"/>
<path d="M34.4359 26.5521L37.7791 29.8788L38.9571 28.7028L35.614 25.3762" fill="white"/>
<path d="M50.2601 42.3379L53.5927 45.6752L54.7813 44.4992L51.4382 41.1619" fill="white"/>
<path d="M39.4453 31.5527L42.7885 34.89L43.9665 33.714L40.6234 30.3767" fill="white"/>
<path d="M45.2401 37.3373L48.5833 40.6746L49.7613 39.4986L46.4288 36.1613" fill="white"/>
<path d="M56.7311 264.075V256.9C56.7311 251.621 52.4095 247.346 47.0796 247.346H33.2013C27.8714 247.346 23.5498 251.621 23.5498 256.9V264.075C21.3377 264.136 19.5278 265.942 19.5278 268.155V287.096C19.5278 287.921 20.2031 288.571 21.0361 288.571H30.0393C30.8723 288.571 31.5938 287.921 31.5938 287.096V286.679H48.6872V287.096C48.6872 287.921 49.4088 288.571 50.2417 288.571H59.2449C60.0778 288.571 60.7531 287.921 60.7531 287.096V268.155C60.7531 265.942 58.9432 264.136 56.7311 264.075ZM28.5773 285.584H22.5444V268.155C22.5444 267.551 23.0405 267.062 23.6504 267.062H27.425C28.0349 267.062 28.5773 267.551 28.5773 268.155V285.584ZM48.6871 283.692H31.5937V276.223H48.6871V283.692ZM48.6871 268.155V271.045H31.5937V268.155C31.5937 265.904 29.6981 264.075 27.425 264.075H26.5663V256.9C26.5663 253.269 29.5347 250.333 33.2012 250.333H47.0795C50.7461 250.333 53.7145 253.269 53.7145 256.9V264.075H52.8558C50.5828 264.075 48.6871 265.904 48.6871 268.155ZM57.7365 285.584H51.7036V268.155C51.7036 267.551 52.246 267.062 52.8559 267.062H56.6305C57.2403 267.062 57.7365 267.551 57.7365 268.155V285.584Z" fill="white"/>
<line x1="40.7253" y1="229.988" x2="40.7253" y2="78.1049" stroke="white"/>
<line x1="38.5" y1="689.883" x2="38.5" y2="538" stroke="white"/>
<circle cx="39.0556" cy="729.056" r="38.5556" fill="#0047FF"/>
<circle cx="39.0556" cy="729.056" r="38.5556" fill="url(#paint0_linear_23_274)"/>
<circle cx="39.0556" cy="729.056" r="38.5556" stroke="white"/>
<line x1="38.5555" y1="459.982" x2="38.5555" y2="308.099" stroke="white"/>
<path d="M61.4568 731.461C61.8927 730.901 62.1044 730.179 61.9114 729.442L56.1888 707.752C55.8567 706.498 54.5677 705.746 53.3161 706.079L16.7497 715.72C15.5023 716.05 14.7488 717.343 15.0768 718.595L20.7993 740.283C21.1273 741.535 22.4224 742.286 23.6741 741.958L36.5949 738.55V745.812C36.5949 749.874 43.3262 752 49.9807 752C56.6311 752 63.3706 749.875 63.3706 745.813V734.799C63.3705 733.477 62.6461 732.364 61.4568 731.461ZM57.3159 723.985L57.9136 726.243L50.6447 728.163L50.0511 725.901L57.3159 723.985ZM53.0982 709.696L54.2335 713.997L42.8777 716.994L41.7424 712.694L53.0982 709.696ZM48.0025 726.441L48.5837 728.649C45.8958 728.769 43.2805 729.238 41.1799 730.04L40.7358 728.362L48.0025 726.441ZM22.6964 735.532L22.1028 733.278L29.3695 731.356L29.9673 733.622L22.6964 735.532ZM31.4183 730.818L38.6809 728.898L39.2309 730.967C39.0544 731.075 38.8884 731.187 38.7265 731.302L32.0119 733.074L31.4183 730.818ZM60.9462 745.634C60.9462 748.002 56.0395 749.92 49.9807 749.92C43.9282 749.92 39.0172 748 39.0172 745.634V742.967C39.0172 742.877 39.0691 742.797 39.0836 742.711C39.4302 744.957 44.1502 746.738 49.9807 746.738C55.8132 746.738 60.5353 744.957 60.8798 742.711C60.8944 742.797 60.9462 742.878 60.9462 742.967V745.634ZM60.9462 740.387C60.9462 742.753 56.0395 744.671 49.9807 744.671C43.9282 744.671 39.0172 742.753 39.0172 740.387V737.72C39.0172 737.632 39.0691 737.549 39.0836 737.464C39.4302 739.708 44.1502 741.493 49.9807 741.493C55.8132 741.493 60.5353 739.708 60.8798 737.464C60.8944 737.549 60.9462 737.632 60.9462 737.72V740.387ZM49.9806 739.081C43.9281 739.081 39.0171 737.163 39.0171 734.799C39.0171 732.435 43.928 730.517 49.9806 730.517C56.0394 730.517 60.9461 732.435 60.9461 734.799C60.9462 737.163 56.0394 739.081 49.9806 739.081Z" fill="white"/>
<circle cx="39.0556" cy="499.056" r="38.5556" stroke="white"/>
<path d="M47.7315 489.261C48.2701 488.406 48.3183 487.37 48.0458 486.532C47.7309 485.563 46.915 484.631 45.7281 484.366C46.0921 483.205 45.693 482.033 45.0111 481.276C44.3293 480.518 43.2047 479.999 42.0126 480.239C41.8732 479.031 41.0315 478.122 40.1006 477.708C39.1696 477.294 37.931 477.276 36.94 477.981C36.3215 476.934 35.183 476.446 34.164 476.446C33.1451 476.446 32.0065 476.934 31.3877 477.981C30.3967 477.276 29.1579 477.294 28.2272 477.708C27.2963 478.122 26.4546 479.031 26.3151 480.239C25.1232 479.999 23.9983 480.518 23.3167 481.276C22.6348 482.033 22.2357 483.205 22.5996 484.366C21.4128 484.631 20.5968 485.563 20.282 486.532C20.0096 487.37 20.0577 488.406 20.5963 489.261C19.6296 489.656 18.9464 490.606 18.9464 491.712C18.9464 492.846 19.6627 493.815 20.6663 494.191L23.1846 511.461C23.2375 511.824 23.5488 512.085 23.9046 512.085C23.9396 512.085 23.9751 512.082 24.0107 512.077C24.4088 512.019 24.6846 511.649 24.6265 511.251L22.1633 494.359H27.145L28.7902 517.644H25.5586L25.0513 514.165C24.9931 513.767 24.6228 513.491 24.2253 513.549C23.8271 513.607 23.5514 513.977 23.6094 514.375L24.2076 518.477C24.2598 518.836 24.5668 519.101 24.9286 519.101H29.5707C29.5709 519.101 29.571 519.101 29.5712 519.101C29.5714 519.101 29.5717 519.101 29.5719 519.101H38.7558C38.756 519.101 38.7563 519.101 38.7565 519.101C38.7566 519.101 38.7567 519.101 38.757 519.101H43.3991C43.7608 519.101 44.0677 518.836 44.1201 518.477L46.6164 501.359C46.6744 500.961 46.3987 500.591 46.0005 500.533C45.6023 500.475 45.2327 500.751 45.1745 501.149L42.7691 517.644H39.5375L41.1826 494.359H46.1644L45.5994 498.235C45.5413 498.633 45.8171 499.003 46.2152 499.061C46.6134 499.119 46.9831 498.843 47.0412 498.445L47.6615 494.191C48.6651 493.815 49.3813 492.846 49.3813 491.713C49.3813 490.606 48.6981 489.656 47.7315 489.261ZM33.4355 517.644H30.2509L28.6058 494.359H33.4354L33.4355 517.644ZM38.0769 517.644H34.8924V494.359H39.722L38.0769 517.644ZM46.9171 492.887C46.9135 492.887 46.91 492.887 46.9064 492.887C46.8741 492.892 46.8456 492.895 46.8188 492.898C46.7909 492.9 46.7632 492.902 46.7347 492.902C46.7347 492.902 34.1641 492.902 34.1637 492.902H21.5932C21.5359 492.902 21.4784 492.896 21.4216 492.887C21.4181 492.887 21.4145 492.887 21.4109 492.887C20.8414 492.798 20.4035 492.306 20.4035 491.712C20.4036 491.056 20.9373 490.523 21.5933 490.523H22.2885H25.8963C26.2624 490.523 26.5841 490.233 26.621 489.869C26.6608 489.477 26.3625 489.11 25.9708 489.07C25.9463 489.067 25.9215 489.066 25.8963 489.066H22.4633C21.546 488.556 21.455 487.637 21.6679 486.982C21.8908 486.296 22.5536 485.572 23.6867 485.788C23.9906 485.846 24.2988 485.705 24.4538 485.436C24.6087 485.168 24.5769 484.831 24.3746 484.596C23.6211 483.722 23.9171 482.786 24.3997 482.251C24.8824 481.715 25.7821 481.322 26.73 481.98C26.9845 482.157 27.3229 482.154 27.5738 481.971C27.8244 481.789 27.9325 481.468 27.843 481.172C27.51 480.067 28.1611 479.332 28.8201 479.039C29.4787 478.746 30.4606 478.753 31.0587 479.74C31.2192 480.005 31.5297 480.14 31.8332 480.075C32.1362 480.011 32.3653 479.761 32.4044 479.454C32.5495 478.309 33.4431 477.903 34.1643 477.903C34.8854 477.903 35.7791 478.309 35.9243 479.454C35.9633 479.761 36.1924 480.011 36.4956 480.075C36.799 480.14 37.1094 480.005 37.2701 479.74C37.8681 478.753 38.8497 478.746 39.5084 479.039C40.1673 479.332 40.8184 480.067 40.4855 481.172C40.396 481.468 40.5041 481.789 40.7548 481.971C41.0057 482.154 41.3439 482.157 41.5985 481.98C42.5467 481.322 43.4462 481.715 43.9288 482.251C44.4113 482.787 44.7074 483.722 43.9539 484.596C43.7515 484.831 43.7198 485.168 43.8747 485.436C44.0297 485.705 44.3376 485.846 44.6418 485.788C45.7745 485.572 46.4377 486.296 46.6606 486.982C46.8733 487.637 46.7825 488.556 45.8652 489.066C45.8652 489.066 28.8243 489.066 28.8106 489.066C28.4197 489.066 28.082 489.404 28.082 489.794C28.082 490.19 28.4149 490.523 28.8106 490.523H46.0399H46.7351C47.3911 490.523 47.9247 491.057 47.9247 491.713C47.9245 492.306 47.4866 492.798 46.9171 492.887Z" fill="white"/>
<path d="M54.1792 507.327C53.0864 507.327 52.2614 508.382 52.2614 509.786C52.2614 511.185 53.0864 512.245 54.1792 512.245C55.2939 512.245 56.1626 511.169 56.1626 509.786C56.1626 508.404 55.2939 507.327 54.1792 507.327ZM53.6765 511.245C53.3214 510.977 53.081 510.431 53.081 509.786C53.081 509.349 53.1902 508.961 53.3705 508.672C53.6274 509.065 53.9607 509.628 54.0371 509.983C54.059 510.267 53.8678 510.819 53.6765 511.245ZM54.5234 511.349C54.6983 510.917 54.895 510.316 54.8513 509.879L54.8458 509.846C54.742 509.311 54.2994 508.59 54.0208 508.169C54.0754 508.158 54.13 508.153 54.1847 508.153C54.824 508.153 55.3485 508.885 55.3485 509.792C55.343 510.518 54.9988 511.141 54.5234 511.349Z" fill="white"/>
<path d="M62.4899 500.028V498.186C62.4899 497.962 62.3041 497.776 62.0801 497.776H61.6375V495.935C61.6375 495.711 61.4518 495.525 61.2277 495.525H47.1962C46.9722 495.525 46.7864 495.711 46.7864 495.935V497.776H46.3438C46.1198 497.776 45.934 497.962 45.934 498.186V500.028H45.0325V500.847H46.3438H46.8137L48.0978 517.796C48.1142 518.01 48.2945 518.173 48.5076 518.173H49.0157V519.539C49.0157 519.763 49.2015 519.949 49.4255 519.949H58.9984C59.2225 519.949 59.4082 519.763 59.4082 519.539V518.173H59.9164C60.1295 518.173 60.3098 518.01 60.3262 517.796L61.6102 500.847H62.0801H63.3915V500.028H62.4899ZM47.606 496.345H60.8179V497.776H47.606V496.345ZM58.5886 519.13H49.8353V518.173H58.5886V519.13ZM59.8126 513.671H49.8189V514.491H59.7525L59.5339 517.354H48.8846L47.983 505.421H59.4574V504.601H47.9229L47.6388 500.847H60.7852L59.8126 513.671ZM61.6703 500.028H46.7536V498.596H47.1962H61.2277H61.6703V500.028Z" fill="white"/>
<defs>
<linearGradient id="paint0_linear_23_274" x1="39.0556" y1="690" x2="39.0556" y2="768.111" gradientUnits="userSpaceOnUse">
<stop stop-color="#91B6FF"/>
<stop offset="0.942708" stop-color="#01B2FF" stop-opacity="0"/>
</linearGradient>
</defs>
</svg>
