<svg width="79" height="769" viewBox="0 0 79 769" fill="none" xmlns="http://www.w3.org/2000/svg">
<line x1="38.5" y1="689.883" x2="38.5" y2="538" stroke="white"/>
<circle cx="39.0556" cy="39.0494" r="38.5556" stroke="white"/>
<circle cx="39.0556" cy="269.043" r="38.5556" fill="#0047FF"/>
<circle cx="39.0556" cy="269.043" r="38.5556" fill="url(#paint0_linear_23_272)"/>
<circle cx="39.0556" cy="269.043" r="38.5556" stroke="white"/>
<path d="M60.8733 28.4167L60.2789 27.8234C59.6846 28.4167 59.1964 28.7028 58.7082 28.9041C58.22 29.2007 57.6256 29.2961 56.7447 29.2961C55.0785 29.2961 53.6033 28.7028 52.5207 27.6327C51.5337 26.6474 50.8544 25.1854 50.8544 23.4161C50.8544 22.5368 50.95 21.9435 51.1516 21.3608C51.3533 20.8734 51.6398 20.3755 52.2342 19.7928L52.8285 19.1995L46.6198 13.0123L13.0186 46.7558L19.206 52.9324L19.8004 52.3391C20.3947 51.7458 20.8829 51.4598 21.3711 51.2585C21.8593 51.0572 22.4536 50.9618 23.4301 50.9618C25.0963 50.9618 26.5716 51.5551 27.6541 52.6252C28.6411 53.6104 29.3204 55.0725 29.3204 56.8418C29.3204 57.7211 29.2248 58.3144 29.0232 58.8971C28.8215 59.3844 28.535 59.8824 27.9406 60.4651L27.3463 61.0584L33.555 67.2562L67.2624 33.608L61.0749 27.4314L60.4806 28.0247L60.8733 28.4167L60.2789 29.01L64.7046 33.4279L33.3534 64.7029L28.9277 60.285L28.3333 60.8783L28.9277 61.4716C29.6175 60.7829 30.1057 60.0943 30.4029 59.3103C30.7001 58.5263 30.7956 57.6469 30.7956 56.6617C30.7956 54.5004 30.0102 52.6358 28.6305 51.2691C27.2508 49.9024 25.3829 49.1078 23.2284 49.1078C22.2414 49.1078 21.3605 49.2031 20.5751 49.4998C19.7897 49.7964 19.0999 50.2838 18.41 50.9724L19.0044 51.5657L19.5987 50.9724L15.173 46.5545L46.5243 15.269L50.9393 19.6869L51.5337 19.0936L50.9393 18.5003C50.2495 19.1889 49.7613 19.8776 49.4641 20.6616C49.167 21.4455 49.0714 22.3249 49.0714 23.3102C49.0714 25.4715 49.8568 27.3361 51.2365 28.7028C52.6162 30.0801 54.4841 30.8641 56.6386 30.8641C57.6256 30.8641 58.5065 30.7687 59.2919 30.4721C60.0773 30.1754 60.7671 29.6881 61.457 28.9994L60.8733 28.4167Z" fill="white"/>
<path d="M34.4359 26.5521L37.7791 29.8788L38.9571 28.7028L35.614 25.3761" fill="white"/>
<path d="M50.2601 42.3379L53.5927 45.6752L54.7813 44.4992L51.4382 41.1619" fill="white"/>
<path d="M39.4453 31.5527L42.7885 34.89L43.9665 33.714L40.6234 30.3767" fill="white"/>
<path d="M45.2401 37.3373L48.5833 40.6746L49.7613 39.4986L46.4288 36.1613" fill="white"/>
<path d="M56.7311 264.075V256.9C56.7311 251.621 52.4095 247.346 47.0796 247.346H33.2013C27.8714 247.346 23.5498 251.621 23.5498 256.9V264.075C21.3377 264.136 19.5278 265.942 19.5278 268.155V287.096C19.5278 287.921 20.2031 288.571 21.0361 288.571H30.0393C30.8723 288.571 31.5938 287.921 31.5938 287.096V286.679H48.6872V287.096C48.6872 287.921 49.4088 288.571 50.2417 288.571H59.2449C60.0778 288.571 60.7531 287.921 60.7531 287.096V268.155C60.7531 265.942 58.9432 264.136 56.7311 264.075ZM28.5773 285.584H22.5444V268.155C22.5444 267.551 23.0405 267.062 23.6504 267.062H27.425C28.0349 267.062 28.5773 267.551 28.5773 268.155V285.584ZM48.6871 283.692H31.5937V276.223H48.6871V283.692ZM48.6871 268.155V271.045H31.5937V268.155C31.5937 265.904 29.6981 264.075 27.425 264.075H26.5663V256.9C26.5663 253.269 29.5347 250.333 33.2012 250.333H47.0795C50.7461 250.333 53.7145 253.269 53.7145 256.9V264.075H52.8558C50.5828 264.075 48.6871 265.904 48.6871 268.155ZM57.7365 285.584H51.7036V268.155C51.7036 267.551 52.246 267.062 52.8559 267.062H56.6305C57.2403 267.062 57.7365 267.551 57.7365 268.155V285.584Z" fill="white"/>
<line x1="40.7253" y1="229.988" x2="40.7253" y2="78.1049" stroke="white"/>
<line x1="38.5555" y1="459.982" x2="38.5555" y2="308.099" stroke="white"/>
<circle cx="39.0556" cy="729.056" r="38.5556" stroke="white"/>
<path d="M60.8287 730.973L60.3344 731.608L60.9757 732.095C62.0422 732.905 62.5748 733.807 62.5749 734.799V745.813C62.5749 747.33 61.3133 748.683 58.8658 749.694C56.4734 750.682 53.2362 751.204 49.9807 751.204C46.7231 751.204 43.487 750.682 41.0963 749.694C38.6508 748.684 37.3907 747.331 37.3907 745.812V738.55V737.517L36.392 737.78L23.4725 741.188C23.4721 741.188 23.4717 741.188 23.4714 741.189C22.642 741.405 21.7847 740.904 21.5691 740.081L21.5687 740.08L15.8465 718.393C15.8465 718.393 15.8464 718.393 15.8463 718.392C15.6298 717.564 16.1311 716.707 16.9529 716.489C16.953 716.489 16.9531 716.489 16.9533 716.489L53.519 706.848L53.5202 706.848C54.3449 706.629 55.1992 707.125 55.4194 707.955C55.4195 707.955 55.4196 707.955 55.4196 707.955L61.1416 729.644C61.2615 730.101 61.1396 730.573 60.8287 730.973ZM58.0851 723.781L57.8817 723.013L57.113 723.216L49.8482 725.131L49.0798 725.334L49.2815 726.103L49.8751 728.365L50.0774 729.136L50.848 728.933L58.1168 727.013L58.8866 726.809L58.6829 726.04L58.0851 723.781ZM53.8675 709.493L53.6645 708.724L52.8951 708.927L41.5393 711.924L40.7699 712.127L40.973 712.897L42.1083 717.197L42.3114 717.967L43.0808 717.764L54.4366 714.767L55.206 714.563L55.0029 713.794L53.8675 709.493ZM48.772 726.238L48.5693 725.468L47.7991 725.671L40.5323 727.593L39.7628 727.797L39.9666 728.566L40.4107 730.243L40.6371 731.098L41.4635 730.783C43.465 730.02 45.9922 729.562 48.6193 729.444L49.6041 729.4L49.3532 728.446L48.772 726.238ZM21.9269 735.734L22.1294 736.503L22.8985 736.301L30.1694 734.392L30.9398 734.189L30.7367 733.419L30.139 731.153L29.9359 730.383L29.1661 730.586L21.8993 732.508L21.1309 732.712L21.3333 733.48L21.9269 735.734ZM31.2149 730.049L30.4465 730.252L30.6487 731.021L31.2423 733.277L31.445 734.047L32.215 733.844L38.9296 732.071L39.0681 732.034L39.1851 731.952C39.3382 731.844 39.4891 731.742 39.6462 731.646L40.1524 731.337L39.9999 730.763L39.4499 728.694L39.2458 727.926L38.4775 728.129L31.2149 730.049ZM38.2215 740.387C38.2215 741.249 38.6586 741.99 39.2822 742.585L38.2992 742.577C38.3049 742.544 38.3121 742.523 38.3114 742.526C38.3072 742.538 38.3098 742.529 38.2943 742.573L38.2932 742.577C38.2745 742.63 38.2215 742.78 38.2215 742.967V745.634C38.2215 746.522 38.6854 747.282 39.3391 747.886C39.992 748.49 40.8931 748.996 41.9395 749.405C44.0373 750.226 46.8809 750.716 49.9807 750.716C53.0834 750.716 55.9275 750.226 58.0252 749.406C59.0716 748.997 59.9724 748.49 60.6251 747.887C61.2787 747.283 61.742 746.522 61.742 745.634V742.967C61.742 742.78 61.689 742.63 61.6702 742.577L61.6692 742.574C61.6606 742.549 61.6575 742.541 61.6558 742.536C61.6545 742.533 61.6539 742.531 61.6521 742.526C61.6513 742.523 61.6585 742.544 61.6642 742.577L60.6813 742.586C61.305 741.991 61.742 741.249 61.742 740.387V737.72C61.742 737.535 61.6891 737.384 61.6711 737.333L61.6696 737.329C61.6616 737.305 61.6584 737.297 61.6566 737.292C61.6551 737.288 61.6545 737.286 61.6526 737.28C61.6517 737.277 61.6586 737.298 61.6642 737.33L60.2801 737.342C60.4015 737.247 60.5165 737.15 60.6247 737.05C61.2782 736.447 61.7419 735.687 61.7419 734.799C61.7419 733.911 61.2782 733.152 60.6247 732.548C59.972 731.945 59.0712 731.439 58.0249 731.03C55.9274 730.211 53.0833 729.721 49.9806 729.721C46.8809 729.721 44.0374 730.211 41.9396 731.03C40.8933 731.439 39.9922 731.945 39.3393 732.548C38.6856 733.151 38.2214 733.911 38.2214 734.799C38.2214 735.687 38.6856 736.447 39.3393 737.05C39.4473 737.15 39.562 737.247 39.6831 737.341L38.2992 737.33C38.3048 737.298 38.3118 737.277 38.3108 737.28C38.3068 737.293 38.3087 737.286 38.2938 737.329L38.2924 737.333C38.2743 737.384 38.2215 737.535 38.2215 737.72V740.387ZM59.7005 743.334C59.603 743.444 59.4851 743.558 59.3438 743.676C58.8521 744.083 58.1348 744.478 57.211 744.821C55.3661 745.507 52.8251 745.942 49.9807 745.942C47.1374 745.942 44.5974 745.507 42.753 744.821C41.8294 744.478 41.1122 744.083 40.6204 743.676C40.479 743.558 40.3609 743.444 40.2634 743.334C40.7578 743.642 41.3235 743.917 41.9397 744.157C44.0375 744.977 46.881 745.467 49.9807 745.467C53.0834 745.467 55.9275 744.977 58.0251 744.157C58.6409 743.917 59.2064 743.642 59.7005 743.334ZM58.025 738.568C58.7926 738.268 59.482 737.916 60.0524 737.511C59.9639 737.778 59.751 738.09 59.3437 738.428C58.8519 738.836 58.1346 739.23 57.2107 739.574C55.3658 740.261 52.8248 740.697 49.9807 740.697C47.1376 740.697 44.5976 740.261 42.7533 739.574C41.8297 739.231 41.1124 738.836 40.6205 738.428C40.2132 738.09 40 737.778 39.9111 737.511C40.4819 737.915 41.1716 738.268 41.9397 738.568C44.0374 739.387 46.8809 739.877 49.9806 739.877C53.0833 739.877 55.9274 739.387 58.025 738.568Z" stroke="white" stroke-width="1.59145"/>
<circle cx="39.0556" cy="499.056" r="38.5556" stroke="white"/>
<path d="M47.7315 489.261C48.2701 488.406 48.3183 487.37 48.0458 486.532C47.7309 485.563 46.915 484.631 45.7281 484.366C46.0921 483.205 45.693 482.033 45.0111 481.276C44.3293 480.518 43.2047 479.999 42.0126 480.239C41.8732 479.031 41.0315 478.122 40.1006 477.708C39.1696 477.294 37.931 477.276 36.94 477.981C36.3215 476.934 35.183 476.446 34.164 476.446C33.1451 476.446 32.0065 476.934 31.3877 477.981C30.3967 477.276 29.1579 477.294 28.2272 477.708C27.2963 478.122 26.4546 479.031 26.3151 480.239C25.1232 479.999 23.9983 480.518 23.3167 481.276C22.6348 482.033 22.2357 483.205 22.5996 484.366C21.4128 484.631 20.5968 485.563 20.282 486.532C20.0096 487.37 20.0577 488.406 20.5963 489.261C19.6296 489.656 18.9464 490.606 18.9464 491.712C18.9464 492.846 19.6627 493.815 20.6663 494.191L23.1846 511.461C23.2375 511.824 23.5488 512.085 23.9046 512.085C23.9396 512.085 23.9751 512.082 24.0107 512.077C24.4088 512.019 24.6846 511.649 24.6265 511.251L22.1633 494.359H27.145L28.7902 517.644H25.5586L25.0513 514.165C24.9931 513.767 24.6228 513.491 24.2253 513.549C23.8271 513.607 23.5514 513.977 23.6094 514.375L24.2076 518.477C24.2598 518.836 24.5668 519.101 24.9286 519.101H29.5707C29.5709 519.101 29.571 519.101 29.5712 519.101C29.5714 519.101 29.5717 519.101 29.5719 519.101H38.7558C38.756 519.101 38.7563 519.101 38.7565 519.101C38.7566 519.101 38.7567 519.101 38.757 519.101H43.3991C43.7608 519.101 44.0677 518.836 44.1201 518.477L46.6164 501.359C46.6744 500.961 46.3987 500.591 46.0005 500.533C45.6023 500.475 45.2327 500.751 45.1745 501.149L42.7691 517.644H39.5375L41.1826 494.359H46.1644L45.5994 498.235C45.5413 498.633 45.8171 499.003 46.2152 499.061C46.6134 499.119 46.9831 498.843 47.0412 498.445L47.6615 494.191C48.6651 493.815 49.3813 492.846 49.3813 491.713C49.3813 490.606 48.6981 489.656 47.7315 489.261ZM33.4355 517.644H30.2509L28.6058 494.359H33.4354L33.4355 517.644ZM38.0769 517.644H34.8924V494.359H39.722L38.0769 517.644ZM46.9171 492.887C46.9135 492.887 46.91 492.887 46.9064 492.887C46.8741 492.892 46.8456 492.895 46.8188 492.898C46.7909 492.9 46.7632 492.902 46.7347 492.902C46.7347 492.902 34.1641 492.902 34.1637 492.902H21.5932C21.5359 492.902 21.4784 492.896 21.4216 492.887C21.4181 492.887 21.4145 492.887 21.4109 492.887C20.8414 492.798 20.4035 492.306 20.4035 491.712C20.4036 491.056 20.9373 490.523 21.5933 490.523H22.2885H25.8963C26.2624 490.523 26.5841 490.233 26.621 489.869C26.6608 489.477 26.3625 489.11 25.9708 489.07C25.9463 489.067 25.9215 489.066 25.8963 489.066H22.4633C21.546 488.556 21.455 487.637 21.6679 486.982C21.8908 486.296 22.5536 485.572 23.6867 485.788C23.9906 485.846 24.2988 485.705 24.4538 485.436C24.6087 485.168 24.5769 484.831 24.3746 484.596C23.6211 483.722 23.9171 482.786 24.3997 482.251C24.8824 481.715 25.7821 481.322 26.73 481.98C26.9845 482.157 27.3229 482.154 27.5738 481.971C27.8244 481.789 27.9325 481.468 27.843 481.172C27.51 480.067 28.1611 479.332 28.8201 479.039C29.4787 478.746 30.4606 478.753 31.0587 479.74C31.2192 480.005 31.5297 480.14 31.8332 480.075C32.1362 480.011 32.3653 479.761 32.4044 479.454C32.5495 478.309 33.4431 477.903 34.1643 477.903C34.8854 477.903 35.7791 478.309 35.9243 479.454C35.9633 479.761 36.1924 480.011 36.4956 480.075C36.799 480.14 37.1094 480.005 37.2701 479.74C37.8681 478.753 38.8497 478.746 39.5084 479.039C40.1673 479.332 40.8184 480.067 40.4855 481.172C40.396 481.468 40.5041 481.789 40.7548 481.971C41.0057 482.154 41.3439 482.157 41.5985 481.98C42.5467 481.322 43.4462 481.715 43.9288 482.251C44.4113 482.787 44.7074 483.722 43.9539 484.596C43.7515 484.831 43.7198 485.168 43.8747 485.436C44.0297 485.705 44.3376 485.846 44.6418 485.788C45.7745 485.572 46.4377 486.296 46.6606 486.982C46.8733 487.637 46.7825 488.556 45.8652 489.066C45.8652 489.066 28.8243 489.066 28.8106 489.066C28.4197 489.066 28.082 489.404 28.082 489.794C28.082 490.19 28.4149 490.523 28.8106 490.523H46.0399H46.7351C47.3911 490.523 47.9247 491.057 47.9247 491.713C47.9245 492.306 47.4866 492.798 46.9171 492.887Z" fill="white"/>
<path d="M54.1792 507.327C53.0864 507.327 52.2614 508.382 52.2614 509.786C52.2614 511.185 53.0864 512.245 54.1792 512.245C55.2939 512.245 56.1626 511.169 56.1626 509.786C56.1626 508.404 55.2939 507.327 54.1792 507.327ZM53.6765 511.245C53.3214 510.977 53.081 510.431 53.081 509.786C53.081 509.349 53.1902 508.961 53.3705 508.672C53.6274 509.065 53.9607 509.628 54.0371 509.983C54.059 510.267 53.8678 510.819 53.6765 511.245ZM54.5234 511.349C54.6983 510.917 54.895 510.316 54.8513 509.879L54.8458 509.846C54.742 509.311 54.2994 508.59 54.0208 508.169C54.0754 508.158 54.13 508.153 54.1847 508.153C54.824 508.153 55.3485 508.885 55.3485 509.792C55.343 510.518 54.9988 511.141 54.5234 511.349Z" fill="white"/>
<path d="M62.4899 500.028V498.186C62.4899 497.962 62.3041 497.776 62.0801 497.776H61.6375V495.935C61.6375 495.711 61.4518 495.525 61.2277 495.525H47.1962C46.9722 495.525 46.7864 495.711 46.7864 495.935V497.776H46.3438C46.1198 497.776 45.934 497.962 45.934 498.186V500.028H45.0325V500.847H46.3438H46.8137L48.0978 517.796C48.1142 518.01 48.2945 518.173 48.5076 518.173H49.0157V519.539C49.0157 519.763 49.2015 519.949 49.4255 519.949H58.9984C59.2225 519.949 59.4082 519.763 59.4082 519.539V518.173H59.9164C60.1295 518.173 60.3098 518.01 60.3262 517.796L61.6102 500.847H62.0801H63.3915V500.028H62.4899ZM47.606 496.345H60.8179V497.776H47.606V496.345ZM58.5886 519.13H49.8353V518.173H58.5886V519.13ZM59.8126 513.671H49.8189V514.491H59.7525L59.5339 517.354H48.8846L47.983 505.421H59.4574V504.601H47.9229L47.6388 500.847H60.7852L59.8126 513.671ZM61.6703 500.028H46.7536V498.596H47.1962H61.2277H61.6703V500.028Z" fill="white"/>
<defs>
<linearGradient id="paint0_linear_23_272" x1="39.0556" y1="229.988" x2="39.0556" y2="308.099" gradientUnits="userSpaceOnUse">
<stop stop-color="#91B6FF"/>
<stop offset="0.942708" stop-color="#01B2FF" stop-opacity="0"/>
</linearGradient>
</defs>
</svg>
