<svg width="300" height="300" viewBox="0 0 300 300" fill="none" xmlns="http://www.w3.org/2000/svg">
<rect width="300" height="300" rx="29" transform="matrix(-1 0 0 1 300 0)" fill="#474747"/>
<path d="M120.834 43.2694C120.331 43.4526 119.873 43.6129 119.804 43.6129C119.461 43.6129 91.5388 71.8262 91.1268 72.582C90.3716 73.9789 90.4173 76.3605 91.2413 77.7346C91.6075 78.33 106.782 93.6962 127.586 114.49L163.313 150.215L127.838 185.596C102.548 210.809 92.2254 221.252 91.8821 221.939C91.1726 223.404 91.0811 224.71 91.5388 226.152C91.905 227.32 92.7061 228.168 106.049 241.542C114.22 249.763 120.537 255.9 121.063 256.198C122.299 256.862 124.817 256.885 126.053 256.221C127.243 255.602 228.884 153.901 229.502 152.734C230.166 151.451 230.166 149.184 229.502 147.924C228.907 146.779 126.602 44.4144 125.297 43.6587C124.13 42.9717 122.093 42.7885 120.834 43.2694Z" fill="#151515"/>
</svg>
